<svg enable-background="new 0 0 400 285" height="285" viewBox="0 0 400 285" width="400" xmlns="http://www.w3.org/2000/svg"><g fill="none" opacity=".3" stroke="#626262" stroke-miterlimit="10" stroke-width="2"><path d="m398 281v3h-2"/><path d="m394 284h-389" stroke-dasharray="5 2"/><path d="m4 284h-3v-3"/><path d="m1 279v-275" stroke-dasharray="5 2"/><path d="m1 3v-2h3"/><path d="m6 1h389" stroke-dasharray="5 2"/><path d="m396 1h2v2"/><path d="m398 5v275" stroke-dasharray="5 2"/></g><path d="m275 194c0 1.104-.896 2-2 2h-145c-1.104 0-2-.896-2-2v-94c0-1.104.896-2 2-2h145c1.104 0 2 .896 2 2z" fill="#f0f0f0"/><g fill="#e6e6e6"><path d="m137 148h43v4h-43z"/><path d="m137 157h61v4h-61z"/><path d="m137 105h61v4h-61z"/><path d="m193 135c0 1.104-.896 2-2 2h-52c-1.104 0-2-.896-2-2v-12c0-1.104.896-2 2-2h52c1.104 0 2 .896 2 2z"/><path d="m254 135c0 1.104-.896 2-2 2h-52c-1.104 0-2-.896-2-2v-12c0-1.104.896-2 2-2h52c1.104 0 2 .896 2 2z"/></g><path d="m225 186c0 1.104-.896 2-2 2h-33c-1.104 0-2-.896-2-2v-14c0-1.104.896-2 2-2h33c1.104 0 2 .896 2 2z" fill="#2c2c2c"/><path d="m265 186c0 1.104-.896 2-2 2h-33c-1.104 0-2-.896-2-2v-14c0-1.104.896-2 2-2h33c1.104 0 2 .896 2 2z" fill="#00cfbc"/></svg>