<svg enable-background="new 0 0 400 285" height="285" viewBox="0 0 400 285" width="400" xmlns="http://www.w3.org/2000/svg"><g fill="none" opacity=".3" stroke="#626262" stroke-miterlimit="10" stroke-width="2"><path d="m398 281v3h-2"/><path d="m394 284h-389" stroke-dasharray="5 2"/><path d="m4 284h-3v-3"/><path d="m1 279v-275" stroke-dasharray="5 2"/><path d="m1 3v-2h3"/><path d="m6 1h389" stroke-dasharray="5 2"/><path d="m396 1h2v2"/><path d="m398 5v275" stroke-dasharray="5 2"/></g><path d="m273 2v59c0 1.104-.896 2-2 2h-145c-1.104 0-2-.896-2-2v-59" fill="#f0f0f0"/><g fill="#e6e6e6"><path d="m135 12h69v4h-69z"/><path d="m220 12h43v4h-43z"/><path d="m135 21h61v4h-61z"/></g><path d="m223 51c0 1.104-.896 2-2 2h-33c-1.104 0-2-.896-2-2v-14c0-1.104.896-2 2-2h33c1.104 0 2 .896 2 2z" fill="#2c2c2c"/><path d="m263 51c0 1.104-.896 2-2 2h-33c-1.104 0-2-.896-2-2v-14c0-1.104.896-2 2-2h33c1.104 0 2 .896 2 2z" fill="#00cfbc"/></svg>