<svg enable-background="new 0 0 400 285" height="285" viewBox="0 0 400 285" width="400" xmlns="http://www.w3.org/2000/svg"><g fill="none" opacity=".3" stroke="#626262" stroke-miterlimit="10" stroke-width="2"><path d="m398 281v3h-2"/><path d="m394 284h-389" stroke-dasharray="5 2"/><path d="m4 284h-3v-3"/><path d="m1 279v-275" stroke-dasharray="5 2"/><path d="m1 3v-2h3"/><path d="m6 1h389" stroke-dasharray="5 2"/><path d="m396 1h2v2"/><path d="m398 5v275" stroke-dasharray="5 2"/></g><path d="m274.5 150.443c0 1.412-1.145 2.557-2.555 2.557h-41.891c-1.412 0-2.556-1.145-2.556-2.557v-17.889c0-1.412 1.144-2.556 2.556-2.556h41.891c1.41 0 2.555 1.144 2.555 2.556z" fill="#00cfbc"/><path d="m221.5 150.443c0 1.412-1.145 2.557-2.555 2.557h-89.89c-1.411 0-2.555-1.145-2.555-2.557v-17.889c0-1.412 1.144-2.556 2.555-2.556h89.89c1.412 0 2.556 1.144 2.556 2.556z" fill="#f0f0f0"/></svg>