<svg enable-background="new 0 0 400 285" height="285" viewBox="0 0 400 285" width="400" xmlns="http://www.w3.org/2000/svg"><g fill="none" opacity=".3" stroke="#626262" stroke-miterlimit="10" stroke-width="2"><path d="m398 281v3h-2"/><path d="m394 284h-389" stroke-dasharray="5 2"/><path d="m4 284h-3v-3"/><path d="m1 279v-275" stroke-dasharray="5 2"/><path d="m1 3v-2h3"/><path d="m6 1h389" stroke-dasharray="5 2"/><path d="m396 1h2v2"/><path d="m398 5v275" stroke-dasharray="5 2"/></g><path d="m297 1.719h99.75v281.25h-99.75z" fill="#f0f0f0"/><g fill="#e6e6e6"><path d="m313 106.031h69v4h-69z"/><path d="m326 125.031h43v4h-43z"/><path d="m317 115.031h61v4h-61z"/></g><path d="m380 154.906c0 1.657-1.343 3-3 3h-58c-1.657 0-3-1.343-3-3v-9.999c0-1.657 1.343-3 3-3h58c1.657 0 3 1.343 3 3z" fill="#00cfbc"/><path d="m380 175.656c0 1.657-1.343 3-3 3h-58c-1.657 0-3-1.343-3-3v-9.999c0-1.657 1.343-3 3-3h58c1.657 0 3 1.343 3 3z" fill="#2c2c2c"/></svg>