<svg enable-background="new 0 0 83 83" height="83" viewBox="0 0 83 83" width="83" xmlns="http://www.w3.org/2000/svg"><g fill="#778095"><path d="m73.5 0h-6v1h.5 5 .5zm-10 0h-6v1h.5 5 .5zm-10 0h-6v1h.5 5 .5zm-10 0h-6v1h.5 5 .5zm-10 0h-6v1h.5 5 .5zm-10 0h-6v1h.5 5 .5zm-10 0h-6v1h.5 5 .5zm-10 0h-3.5v1 1 .5h1v-.5-1h2 .5zm-2.5 6.5h-1v.5 5 .5h1v-.5-5zm0 10h-1v.5 5 .5h1v-.5-5zm0 10h-1v.5 5 .5h1v-.5-5zm0 10h-1v.5 5 .5h1v-.5-5zm0 10h-1v.5 5 .5h1v-.5-5zm0 10h-1v.5 5 .5h1v-.5-5zm0 10h-1v.5 5 .5h1v-.5-5zm0 10h-1v.5 5 .5h1v-.5-5zm8.5 5.5h-.5-5-.5v1h.5 5 .5zm10 0h-.5-5-.5v1h.5 5 .5zm10 0h-.5-5-.5v1h.5 5 .5zm10 0h-.5-5-.5v1h.5 5 .5zm10 0h-.5-5-.5v1h.5 5 .5zm10 0h-.5-5-.5v1h.5 5 .5zm10 0h-.5-5-.5v1h.5 5 .5zm10 0h-.5-5-.5v1h.5 5 .5zm3.5-5.5h-1v.5 5 .5h1zm0-10h-1v.5 5 .5h1zm0-10h-1v.5 5 .5h1zm0-10h-1v.5 5 .5h1zm0-10h-1v.5 5 .5h1zm0-10h-1v.5 5 .5h1zm0-10h-1v.5 5 .5h1zm0-10h-1v.5 5 .5h1zm0-6.5h-5.5v1h.5 4v1 .5h1z"/><path d="m33 39.8h17v3.4h-17z"/><path d="m39.8 33h3.4v17h-3.4z"/></g></svg>