<svg enable-background="new 0 0 83 83" height="83" viewBox="0 0 83 83" width="83" xmlns="http://www.w3.org/2000/svg"><path d="m0 0h83v83h-83z" fill="#42affa"/><g fill="#fff"><path d="m13.35 26.725h2.856v1.396h.042c.367-.592.832-1.021 1.396-1.29s1.185-.402 1.861-.402c.86 0 1.601.162 2.221.486.621.324 1.135.755 1.544 1.291s.712 1.16.91 1.872c.197.712.296 1.456.296 2.232 0 .734-.099 1.439-.296 2.116s-.497 1.276-.899 1.797c-.402.523-.902.938-1.502 1.249-.599.31-1.3.465-2.104.465-.677 0-1.301-.137-1.872-.413-.571-.275-1.04-.68-1.406-1.216h-.042v5.182h-3.005zm5.521 8.968c.494 0 .906-.098 1.237-.295s.599-.456.804-.772c.205-.317.349-.688.434-1.111.084-.423.127-.853.127-1.29s-.046-.868-.138-1.291c-.092-.422-.244-.8-.455-1.131-.211-.333-.483-.6-.814-.805s-.736-.306-1.216-.306c-.494 0-.906.102-1.237.306s-.599.47-.804.793c-.205.324-.349.698-.434 1.122-.084.422-.127.86-.127 1.311 0 .438.045.867.137 1.29s.24.793.444 1.111c.205.316.476.575.814.772.339.198.748.296 1.228.296z"/><path d="m25.09 30.087c.042-.705.218-1.291.529-1.755.31-.465.705-.839 1.184-1.122.48-.281 1.019-.482 1.618-.603.6-.12 1.202-.179 1.809-.179.55-.001 1.107.038 1.671.116s1.079.229 1.544.456c.465.225.846.539 1.143.941.296.402.444.934.444 1.597v5.69c0 .494.028.966.084 1.417s.155.79.296 1.016h-3.046c-.056-.168-.102-.342-.137-.518-.035-.177-.06-.356-.074-.54-.48.493-1.043.838-1.692 1.036-.648.197-1.312.296-1.988.296-.522 0-1.008-.063-1.459-.19-.452-.126-.846-.324-1.185-.592-.338-.268-.603-.606-.793-1.015s-.286-.896-.286-1.461c0-.62.109-1.131.328-1.533s.501-.723.846-.963c.346-.24.741-.419 1.185-.539s.892-.215 1.343-.286c.452-.07.896-.127 1.333-.168.438-.042.826-.106 1.164-.191.338-.084.606-.208.804-.37s.289-.398.275-.708c0-.324-.053-.582-.159-.772s-.247-.338-.423-.444-.38-.177-.613-.212c-.233-.034-.483-.052-.751-.052-.592 0-1.057.126-1.396.381-.338.253-.536.677-.592 1.269h-3.006zm6.938 2.222c-.127.113-.286.201-.477.264-.19.064-.395.117-.613.159-.219.042-.448.078-.688.106s-.479.063-.719.105c-.226.042-.448.1-.667.17-.218.07-.409.166-.571.285-.163.121-.293.271-.392.455s-.148.416-.148.699c0 .267.049.494.148.676s.232.328.402.435c.169.105.367.179.592.221.226.043.458.063.698.063.592 0 1.051-.098 1.375-.295.325-.197.564-.434.719-.709.156-.275.25-.552.286-.834.035-.283.052-.508.053-.677v-1.123z"/><path d="m46.813 36.963c0 .436-.061.938-.18 1.5-.12.564-.378 1.089-.772 1.576-.396.487-.965.899-1.713 1.238-.748.337-1.748.507-3.004.507-.536 0-1.082-.067-1.639-.201-.558-.134-1.065-.342-1.523-.624s-.839-.645-1.143-1.09c-.303-.443-.476-.976-.518-1.596h2.983c.141.564.416.956.825 1.174.409.217.881.328 1.417.328.846 0 1.463-.255 1.851-.762s.575-1.149.562-1.924v-1.439h-.044c-.324.578-.786 1.005-1.385 1.28s-1.23.413-1.893.413c-.818 0-1.523-.145-2.116-.434-.592-.288-1.079-.685-1.459-1.184-.381-.501-.659-1.086-.835-1.756s-.264-1.378-.264-2.126c0-.705.102-1.386.307-2.041.204-.656.504-1.234.899-1.735.395-.5.884-.899 1.47-1.196.585-.296 1.259-.443 2.02-.443.72-.001 1.35.134 1.893.402s.998.719 1.364 1.354h.044v-1.46h2.854v10.239zm-5.415-1.884c.423 0 .797-.083 1.121-.253.324-.168.592-.395.804-.676.212-.283.37-.603.476-.963.106-.359.16-.737.16-1.131 0-.452-.044-.878-.128-1.28-.085-.402-.226-.758-.423-1.069-.197-.31-.459-.557-.783-.74s-.733-.274-1.227-.274c-.423 0-.786.084-1.089.253s-.557.398-.762.688c-.204.289-.353.62-.444.994-.092.374-.138.766-.138 1.174 0 .396.039.787.117 1.175.077.387.211.736.402 1.047.19.31.44.564.75.762.311.195.699.293 1.164.293z"/><path d="m50.643 32.922c.042.973.289 1.678.74 2.116s1.1.655 1.946.655c.606 0 1.127-.15 1.565-.455.437-.304.705-.625.804-.962h2.645c-.424 1.312-1.072 2.25-1.947 2.814-.874.563-1.932.845-3.173.845-.86 0-1.635-.137-2.326-.413-.691-.275-1.276-.666-1.756-1.173-.479-.508-.849-1.115-1.11-1.82-.262-.705-.393-1.479-.393-2.327 0-.817.136-1.579.402-2.284.268-.705.649-1.315 1.143-1.83.493-.514 1.083-.919 1.766-1.216.685-.296 1.443-.443 2.274-.443.932 0 1.742.179 2.433.54.69.359 1.259.842 1.702 1.449.445.606.766 1.297.963 2.072.197.776.269 1.586.212 2.433h-7.89zm4.886-1.903c-.142-.762-.393-1.34-.752-1.735s-.905-.592-1.639-.592c-.479 0-.878.081-1.195.243s-.571.364-.762.603c-.189.24-.324.494-.401.762-.078.268-.124.508-.138.72h4.887z"/><path d="m61.579 34.107c0 .324.066.603.2.834.135.234.307.424.518.572.212.148.456.257.729.328.275.07.562.105.858.105.211 0 .433-.024.666-.073.231-.05.443-.128.635-.233.189-.105.348-.246.475-.423.128-.176.191-.398.191-.666 0-.452-.3-.79-.899-1.016-.599-.225-1.435-.452-2.507-.677-.437-.099-.863-.215-1.279-.35-.416-.134-.786-.31-1.11-.528-.325-.218-.586-.493-.783-.825s-.296-.737-.296-1.217c0-.705.137-1.282.412-1.734s.639-.807 1.09-1.068.959-.444 1.522-.55c.564-.106 1.143-.158 1.735-.158s1.166.056 1.723.169c.558.112 1.056.303 1.492.571.438.268.8.624 1.089 1.068.29.444.462 1.004.518 1.682h-2.854c-.044-.579-.261-.969-.656-1.174s-.861-.307-1.396-.307c-.169 0-.354.011-.551.031-.197.021-.376.067-.539.138-.162.071-.299.173-.412.307-.112.134-.169.314-.169.539 0 .268.099.486.296.656.197.168.455.306.772.412.316.106.681.201 1.089.286.409.084.826.176 1.248.275.438.099.864.218 1.28.359.415.141.786.328 1.11.56.324.234.584.522.781.868.198.346.297.772.297 1.28 0 .72-.145 1.321-.433 1.808-.289.487-.667.878-1.133 1.175-.465.297-.997.503-1.597.625-.599.119-1.209.179-1.829.179-.635 0-1.256-.063-1.862-.19-.605-.126-1.146-.338-1.618-.635-.472-.295-.86-.688-1.162-1.173-.305-.487-.469-1.097-.498-1.83z"/></g><path d="m70.991 35.373h-.991v-.906h3.07v.906h-.991v2.627h-1.088z" fill="#b3eaff"/><path d="m73.219 34.467h1.55l.505 2.079h.009l.505-2.079h1.549v3.533h-1.03v-2.265h-.009l-.614 2.265h-.812l-.614-2.265h-.01v2.265h-1.029z" fill="#b3eaff"/><path d="m64 62c0 1.104-.8 2-1.787 2h-38.425c-.988 0-1.788-.896-1.788-2v-11c0-1.104.8-2 1.788-2h38.425c.987 0 1.787.896 1.787 2z" fill="#231f20" opacity=".15"/><path d="m32.655 52.677v1.391h-3.48v1.439h3.13v1.33h-3.13v1.45h3.59v1.38h-5.15v-6.99z" fill="#b3eaff"/><path d="m40.416 55.267-1.89 3.82h-.93l-1.88-3.82v4.4h-1.56v-6.99h2.11l1.8 3.84 1.81-3.84h2.1v6.99h-1.56z" fill="#b3eaff"/><path d="m48.676 59.667-.65-1.51h-2.93l-.65 1.51h-1.66l3.021-6.99h1.51l3.021 6.99zm-2.111-4.91-.88 2.03h1.75z" fill="#b3eaff"/><path d="m51.145 52.677h1.561v6.99h-1.561z" fill="#b3eaff"/><path d="m54.425 59.667v-6.99h1.56v5.601h2.98v1.39h-4.54z" fill="#b3eaff"/></svg>