<svg enable-background="new 0 0 23 23" height="23" viewBox="0 0 23 23" width="23" xmlns="http://www.w3.org/2000/svg"><path d="m21.6 11.5c0 5.6-4.5 10.1-10.1 10.1s-10.1-4.5-10.1-10.1 4.5-10.1 10.1-10.1c5.6 0 10.1 4.5 10.1 10.1z" fill="#c5bfdd"/><path d="m10.4 14h-.1l-1.9-1.9.8-.8 1.1 1.1 3.5-3.4.8.8z" fill="#fff"/><path d="m11.5.3c-6.2 0-11.2 5-11.2 11.2s5 11.2 11.2 11.2 11.2-5 11.2-11.2-5-11.2-11.2-11.2zm0 20.7c-5.2 0-9.5-4.3-9.5-9.5s4.3-9.5 9.5-9.5 9.5 4.3 9.5 9.5-4.3 9.5-9.5 9.5z" fill="#6d60aa"/></svg>