<svg enable-background="new 0 0 118 55" height="55" viewBox="0 0 118 55" width="118" xmlns="http://www.w3.org/2000/svg"><path d="m0 0h118v55h-118z" fill="#e6e6e6"/><g fill="#626262"><circle cx="107" cy="11" opacity=".3" r="4"/><path d="m87 10.5c0 .829-.672 1.5-1.5 1.5h-77c-.829 0-1.5-.671-1.5-1.5 0-.829.671-1.5 1.5-1.5h77c.828 0 1.5.671 1.5 1.5z" opacity=".2"/><path d="m65 19.5c0 .829-.672 1.5-1.5 1.5h-55c-.829 0-1.5-.671-1.5-1.5 0-.829.671-1.5 1.5-1.5h55c.828 0 1.5.671 1.5 1.5z" opacity=".2"/><path d="m62 45.5c0 .828-.352 1.5-.786 1.5h-53.428c-.434 0-.786-.672-.786-1.5 0-.828.352-1.5.786-1.5h53.428c.434 0 .786.672.786 1.5z" opacity=".1"/></g></svg>