<svg enable-background="new 0 0 110 45" height="45" viewBox="0 0 110 45" width="110" xmlns="http://www.w3.org/2000/svg"><path d="m104 22.5c0 11.322-9.178 20.5-20.5 20.5h-57c-11.322 0-20.5-9.178-20.5-20.5 0-11.322 9.178-20.5 20.5-20.5h57c11.322 0 20.5 9.178 20.5 20.5z" fill="#e6e6e6"/><g fill="#626262"><path d="m61 30.5c0 .828-.672 1.5-1.5 1.5h-39c-.829 0-1.5-.672-1.5-1.5 0-.828.671-1.5 1.5-1.5h39c.828 0 1.5.672 1.5 1.5z" opacity=".2"/><path d="m69 22.5c0 .828-.672 1.5-1.5 1.5h-47c-.829 0-1.5-.672-1.5-1.5 0-.829.671-1.5 1.5-1.5h47c.828 0 1.5.671 1.5 1.5z" opacity=".2"/><path d="m50 14.5c0 .829-.671 1.5-1.5 1.5h-28c-.829 0-1.5-.671-1.5-1.5 0-.829.671-1.5 1.5-1.5h28c.829 0 1.5.671 1.5 1.5z" opacity=".2"/><circle cx="87.5" cy="21.5" opacity=".3" r="5.5"/></g></svg>